<?xml version="1.0" encoding="UTF-8" standalone="no"?>
<!DOCTYPE svg PUBLIC "-//W3C//DTD SVG 1.1//EN" "http://www.w3.org/Graphics/SVG/1.1/DTD/svg11.dtd">
<svg width="100%" height="100%" viewBox="0 0 360 100" version="1.1" xmlns="http://www.w3.org/2000/svg" xmlns:xlink="http://www.w3.org/1999/xlink" xml:space="preserve" xmlns:serif="http://www.serif.com/" style="fill-rule:evenodd;clip-rule:evenodd;">
    <g transform="matrix(1,0,0,1,43,0)">
        <circle cx="50" cy="50" r="45" style="fill:white;stroke:black;stroke-width:2px;"/>
    </g>
    <g transform="matrix(0.969387,0.493927,-0.497199,0.975807,73.352,-31.6472)">
        <path d="M72.22,37.901C72.22,34.031 69.057,30.888 65.161,30.888L35.16,30.888C31.265,30.888 28.101,34.031 28.101,37.901L28.101,78.662C28.101,82.532 31.265,85.674 35.16,85.674L65.161,85.674C69.057,85.674 72.22,82.532 72.22,78.662L72.22,37.901Z" style="fill:rgb(51,51,51);"/>
    </g>
    <g transform="matrix(1.06419,0.226201,-0.2277,1.07124,52.8897,-23.7799)">
        <path d="M72.22,37.901C72.22,34.031 69.057,30.888 65.161,30.888L35.16,30.888C31.265,30.888 28.101,34.031 28.101,37.901L28.101,78.662C28.101,82.532 31.265,85.674 35.16,85.674L65.161,85.674C69.057,85.674 72.22,82.532 72.22,78.662L72.22,37.901Z" style="fill:rgb(122,122,122);"/>
    </g>
    <g transform="matrix(1.08797,0,0,1.09517,38.4265,-13.8282)">
        <path d="M72.22,38.193C72.22,34.162 68.926,30.888 64.867,30.888L35.455,30.888C31.396,30.888 28.101,34.162 28.101,38.193L28.101,78.369C28.101,82.401 31.396,85.674 35.455,85.674L64.867,85.674C68.926,85.674 72.22,82.401 72.22,78.369L72.22,38.193Z" style="fill:rgb(152,152,152);"/>
    </g>
    <g transform="matrix(1.00979,0,0,1.04694,45.4616,-3.7558)">
        <path d="M62.923,34.153C62.923,32.044 61.148,30.332 58.961,30.332L35.194,30.332C33.008,30.332 31.233,32.044 31.233,34.153C31.233,36.261 33.008,37.973 35.194,37.973L58.961,37.973C61.148,37.973 62.923,36.261 62.923,34.153Z" style="fill:rgb(184,184,184);"/>
    </g>
    <g transform="matrix(1.00979,0,0,1.04694,45.4616,10.2442)">
        <path d="M62.923,34.153C62.923,32.044 61.148,30.332 58.961,30.332L35.194,30.332C33.008,30.332 31.233,32.044 31.233,34.153C31.233,36.261 33.008,37.973 35.194,37.973L58.961,37.973C61.148,37.973 62.923,36.261 62.923,34.153Z" style="fill:rgb(205,205,205);"/>
    </g>
    <g transform="matrix(0.504894,0,0,1.04694,61.2308,24.2442)">
        <path d="M62.923,34.153C62.923,32.044 59.373,30.332 55,30.332L39.155,30.332C34.783,30.332 31.233,32.044 31.233,34.153C31.233,36.261 34.783,37.973 39.155,37.973L55,37.973C59.373,37.973 62.923,36.261 62.923,34.153Z" style="fill:rgb(229,229,229);"/>
    </g>
    <g transform="matrix(1.09898,0,0.0191798,1.09881,25.7464,-4.89623)">
        <circle cx="72.937" cy="68.988" r="10.919" style="fill:rgb(184,184,184);stroke:white;stroke-width:1.8px;stroke-linecap:round;stroke-linejoin:round;stroke-miterlimit:1.5;"/>
    </g>
    <g transform="matrix(1,0,0,1,42.2807,-2.77271)">
        <g transform="matrix(0.218625,-0.126223,0.130867,0.226669,47.5853,74.3821)">
            <path d="M62.923,34.153C62.923,32.044 61.148,30.332 58.961,30.332L35.194,30.332C33.008,30.332 31.233,32.044 31.233,34.153C31.233,36.261 33.008,37.973 35.194,37.973L58.961,37.973C61.148,37.973 62.923,36.261 62.923,34.153Z" style="fill:rgb(245,245,245);"/>
        </g>
        <g transform="matrix(0.0631117,0,0,1.30867,61.9741,25.6812)">
            <path d="M62.923,31.096C62.923,30.674 55.823,30.332 47.078,30.332C38.333,30.332 31.233,30.674 31.233,31.096L31.233,37.209C31.233,37.631 38.333,37.973 47.078,37.973C55.823,37.973 62.923,37.631 62.923,37.209L62.923,31.096Z" style="fill:rgb(245,245,245);"/>
        </g>
    </g>
    <g transform="matrix(1,0,0,1,135.354,81.4791)">
        <path d="M42.781,-10.019L32.469,-43.623L32.205,-43.623C32.244,-42.822 32.308,-41.616 32.395,-40.005C32.483,-38.393 32.566,-36.679 32.644,-34.863C32.723,-33.047 32.762,-31.406 32.762,-29.941L32.762,-10.019L24.646,-10.019L24.646,-52.851L37.01,-52.851L47.146,-20.097L47.322,-20.097L58.074,-52.851L70.437,-52.851L70.437,-10.019L61.971,-10.019L61.971,-30.293C61.971,-31.64 61.995,-33.193 62.044,-34.951C62.093,-36.709 62.156,-38.383 62.234,-39.975C62.312,-41.567 62.371,-42.763 62.41,-43.564L62.146,-43.564L51.101,-10.019L42.781,-10.019Z" style="fill:rgb(186,186,186);fill-rule:nonzero;stroke:black;stroke-width:1px;stroke-linejoin:round;stroke-miterlimit:2;"/>
        <path d="M78.611,-10.019L78.611,-52.851L87.693,-52.851L87.693,-17.519L105.066,-17.519L105.066,-10.019L78.611,-10.019Z" style="fill:rgb(186,186,186);fill-rule:nonzero;stroke:black;stroke-width:1px;stroke-linejoin:round;stroke-miterlimit:2;"/>
        <path d="M148.807,-31.494C148.807,-28.193 148.396,-25.19 147.576,-22.485C146.756,-19.78 145.511,-17.451 143.841,-15.498C142.171,-13.545 140.057,-12.046 137.498,-11.001C134.939,-9.956 131.912,-9.433 128.416,-9.433C124.92,-9.433 121.892,-9.956 119.334,-11.001C116.775,-12.046 114.661,-13.545 112.991,-15.498C111.321,-17.451 110.076,-19.785 109.256,-22.5C108.435,-25.214 108.025,-28.232 108.025,-31.552C108.025,-35.986 108.753,-39.848 110.208,-43.139C111.663,-46.43 113.904,-48.984 116.932,-50.8C119.959,-52.617 123.807,-53.525 128.475,-53.525C133.123,-53.525 136.946,-52.617 139.944,-50.8C142.942,-48.984 145.169,-46.425 146.624,-43.125C148.079,-39.824 148.807,-35.947 148.807,-31.494ZM117.547,-31.494C117.547,-28.506 117.923,-25.932 118.675,-23.774C119.427,-21.616 120.603,-19.956 122.205,-18.794C123.807,-17.631 125.877,-17.05 128.416,-17.05C130.994,-17.05 133.084,-17.631 134.685,-18.794C136.287,-19.956 137.454,-21.616 138.186,-23.774C138.919,-25.932 139.285,-28.506 139.285,-31.494C139.285,-35.986 138.445,-39.521 136.766,-42.099C135.086,-44.677 132.322,-45.966 128.475,-45.966C125.916,-45.966 123.831,-45.385 122.22,-44.223C120.608,-43.061 119.427,-41.401 118.675,-39.243C117.923,-37.085 117.547,-34.502 117.547,-31.494Z" style="fill:rgb(186,186,186);fill-rule:nonzero;stroke:black;stroke-width:1px;stroke-linejoin:round;stroke-miterlimit:2;"/>
        <path d="M170.281,-52.851C175.809,-52.851 179.842,-51.665 182.381,-49.292C184.92,-46.919 186.189,-43.652 186.189,-39.492C186.189,-37.617 185.906,-35.825 185.34,-34.116C184.773,-32.407 183.85,-30.888 182.571,-29.56C181.292,-28.232 179.588,-27.182 177.459,-26.411C175.33,-25.639 172.703,-25.254 169.578,-25.254L165.682,-25.254L165.682,-10.019L156.6,-10.019L156.6,-52.851L170.281,-52.851ZM169.812,-45.41L165.682,-45.41L165.682,-32.695L168.67,-32.695C170.369,-32.695 171.844,-32.92 173.094,-33.369C174.344,-33.818 175.31,-34.521 175.994,-35.478C176.678,-36.435 177.019,-37.666 177.019,-39.17C177.019,-41.279 176.434,-42.846 175.262,-43.872C174.09,-44.897 172.273,-45.41 169.812,-45.41Z" style="fill:rgb(186,186,186);fill-rule:nonzero;stroke:black;stroke-width:1px;stroke-linejoin:round;stroke-miterlimit:2;"/>
    </g>
</svg>
