<?xml version="1.0" encoding="UTF-8" standalone="no"?>
<!DOCTYPE svg PUBLIC "-//W3C//DTD SVG 1.1//EN" "http://www.w3.org/Graphics/SVG/1.1/DTD/svg11.dtd">
<svg width="100%" height="100%" viewBox="0 0 100 100" version="1.1" xmlns="http://www.w3.org/2000/svg" xmlns:xlink="http://www.w3.org/1999/xlink" xml:space="preserve" xmlns:serif="http://www.serif.com/" style="fill-rule:evenodd;clip-rule:evenodd;">
    <circle cx="50" cy="50" r="45" style="fill:white;stroke:black;stroke-width:2px;"/>
    <g transform="matrix(0.969387,0.493927,-0.497199,0.975807,30.352,-31.6472)">
        <path d="M72.22,37.901C72.22,34.031 69.057,30.888 65.161,30.888L35.16,30.888C31.265,30.888 28.101,34.031 28.101,37.901L28.101,78.662C28.101,82.532 31.265,85.674 35.16,85.674L65.161,85.674C69.057,85.674 72.22,82.532 72.22,78.662L72.22,37.901Z" style="fill:rgb(51,51,51);"/>
    </g>
    <g transform="matrix(1.06419,0.226201,-0.2277,1.07124,9.88966,-23.7799)">
        <path d="M72.22,37.901C72.22,34.031 69.057,30.888 65.161,30.888L35.16,30.888C31.265,30.888 28.101,34.031 28.101,37.901L28.101,78.662C28.101,82.532 31.265,85.674 35.16,85.674L65.161,85.674C69.057,85.674 72.22,82.532 72.22,78.662L72.22,37.901Z" style="fill:rgb(122,122,122);"/>
    </g>
    <g transform="matrix(1.08797,0,0,1.09517,-4.57352,-13.8282)">
        <path d="M72.22,38.193C72.22,34.162 68.926,30.888 64.867,30.888L35.455,30.888C31.396,30.888 28.101,34.162 28.101,38.193L28.101,78.369C28.101,82.401 31.396,85.674 35.455,85.674L64.867,85.674C68.926,85.674 72.22,82.401 72.22,78.369L72.22,38.193Z" style="fill:rgb(152,152,152);"/>
    </g>
    <g transform="matrix(1.00979,0,0,1.04694,2.4616,-3.7558)">
        <path d="M62.923,34.153C62.923,32.044 61.148,30.332 58.961,30.332L35.194,30.332C33.008,30.332 31.233,32.044 31.233,34.153C31.233,36.261 33.008,37.973 35.194,37.973L58.961,37.973C61.148,37.973 62.923,36.261 62.923,34.153Z" style="fill:rgb(184,184,184);"/>
    </g>
    <g transform="matrix(1.00979,0,0,1.04694,2.4616,10.2442)">
        <path d="M62.923,34.153C62.923,32.044 61.148,30.332 58.961,30.332L35.194,30.332C33.008,30.332 31.233,32.044 31.233,34.153C31.233,36.261 33.008,37.973 35.194,37.973L58.961,37.973C61.148,37.973 62.923,36.261 62.923,34.153Z" style="fill:rgb(205,205,205);"/>
    </g>
    <g transform="matrix(0.504894,0,0,1.04694,18.2308,24.2442)">
        <path d="M62.923,34.153C62.923,32.044 59.373,30.332 55,30.332L39.155,30.332C34.783,30.332 31.233,32.044 31.233,34.153C31.233,36.261 34.783,37.973 39.155,37.973L55,37.973C59.373,37.973 62.923,36.261 62.923,34.153Z" style="fill:rgb(229,229,229);"/>
    </g>
    <g transform="matrix(1.09898,0,0.0191798,1.09881,-17.2536,-4.89623)">
        <circle cx="72.937" cy="68.988" r="10.919" style="fill:rgb(184,184,184);stroke:white;stroke-width:1.8px;stroke-linecap:round;stroke-linejoin:round;stroke-miterlimit:1.5;"/>
    </g>
    <g transform="matrix(1,0,0,1,-0.719349,-2.77271)">
        <g transform="matrix(0.218625,-0.126223,0.130867,0.226669,47.5853,74.3821)">
            <path d="M62.923,34.153C62.923,32.044 61.148,30.332 58.961,30.332L35.194,30.332C33.008,30.332 31.233,32.044 31.233,34.153C31.233,36.261 33.008,37.973 35.194,37.973L58.961,37.973C61.148,37.973 62.923,36.261 62.923,34.153Z" style="fill:rgb(245,245,245);"/>
        </g>
        <g transform="matrix(0.0631117,0,0,1.30867,61.9741,25.6812)">
            <path d="M62.923,31.096C62.923,30.674 55.823,30.332 47.078,30.332C38.333,30.332 31.233,30.674 31.233,31.096L31.233,37.209C31.233,37.631 38.333,37.973 47.078,37.973C55.823,37.973 62.923,37.631 62.923,37.209L62.923,31.096Z" style="fill:rgb(245,245,245);"/>
        </g>
    </g>
</svg>
